<svg xmlns="http://www.w3.org/2000/svg" width="24" height="24" viewBox="0 0 24 24"><g fill="none" fill-rule="evenodd"><path d="M0 0h24v24H0z"/><path fill="#29242d" d="M21.944 18.866a2.08 2.08 0 0 1-2.078 2.078h-.858V14.02h.858a2.08 2.08 0 0 1 2.078 2.077v2.769zM12.496 5.112a6.51 6.51 0 0 0-6.504 6.503v1.349h-.858c-.031 0-.06.007-.09.008v-1.465c0-4.109 3.343-7.452 7.452-7.452s7.451 3.343 7.451 7.452v1.464c-.027 0-.053-.007-.081-.007H19v-1.349a6.51 6.51 0 0 0-6.504-6.503zM5.992 20.944h-.858a2.08 2.08 0 0 1-2.078-2.078v-2.769a2.08 2.08 0 0 1 2.078-2.077h.858V20.944zm15.011-7.759v-1.678C21.003 6.816 17.187 3 12.496 3s-8.508 3.816-8.508 8.507v1.681A3.132 3.132 0 0 0 2 16.097v2.769A3.137 3.137 0 0 0 5.134 22H6.52a.529.529 0 0 0 .528-.529v-9.856a5.453 5.453 0 0 1 5.448-5.447 5.453 5.453 0 0 1 5.448 5.447l.008 9.856c0 .292.237.529.528.529h1.386A3.137 3.137 0 0 0 23 18.866v-2.769a3.132 3.132 0 0 0-1.997-2.912z"/></g></svg>