<svg xmlns="http://www.w3.org/2000/svg" width="24" height="24" viewBox="0 0 24 24"><g fill="none" fill-rule="evenodd"><path d="M0 0h24v24H0z"/><path fill="#29242d" d="M22.994 10.671c0 4.78-1.35 7.045-4.351 7.266V22h1.285a.5.5 0 0 1 0 1h-3.569a.5.5 0 1 1 0-1h1.285v-4.069c-.622-.047-1.175-.178-1.658-.404a7.753 7.753 0 0 1-3.149 3.152v1.792a.53.53 0 0 1-.53.529H6.628a.53.53 0 0 1-.53-.529v-1.792C3.598 19.346 2 16.709 2 13.869a.53.53 0 0 1 .529-.529h10.949a17.419 17.419 0 0 1-.185-2.669c0-2.405.406-5.966.942-8.284A.501.501 0 0 1 14.723 2h6.84c.233 0 .436.16.489.387.537 2.318.942 5.879.942 8.284zm-6.587 2.669c.293 0 .529.237.529.529 0 .964-.197 1.9-.538 2.774.549.256 1.153.316 1.745.316 1.864 0 3.852-.486 3.852-6.288 0-2.171-.359-5.446-.831-7.671h-6.04c-.473 2.225-.832 5.5-.832 7.671 0 1.064.071 1.936.194 2.669h1.921zm-4.328 6.536a6.698 6.698 0 0 0 3.777-5.477H3.08a6.701 6.701 0 0 0 3.776 5.477.53.53 0 0 1 .301.478v1.588h4.621v-1.588a.53.53 0 0 1 .301-.478z"/></g></svg>