<svg xmlns="http://www.w3.org/2000/svg" width="24" height="24" viewBox="0 0 24 24"><g fill="none" fill-rule="evenodd"><path d="M0 0h24v24H0z"/><path fill="#29242d" d="M7.5 3.921c1.968.25 3.5 1.914 3.5 3.949V21.5a.5.5 0 0 1-.5.5h-7a.5.5 0 0 1-.5-.5V7.87c0-2.035 1.532-3.699 3.5-3.949V2h-.203a.5.5 0 1 1 0-1h3.001a.5.5 0 0 1 0 1H7.5v1.921zm11.768 17.081h-3.664a.501.501 0 0 1-.5-.5v-1.633h4.664v1.633c0 .275-.225.5-.5.5zm1.674-13.201l-.187 1.676h-6.71l-.2-1.676h7.097zm-5.894 10.068l-.883-7.392h6.478l-.824 7.392h-4.771zm6.949-10.512l-1.234 11.065c0 .008.005.014.005.021v2.059c0 .826-.673 1.5-1.5 1.5h-3.664c-.827 0-1.5-.674-1.5-1.5v-2.059c0-.005.004-.013.004-.019L12.787 7.361a.497.497 0 0 1 .496-.56H21.5c.143 0 .278.06.373.168.095.105.14.246.124.388zM10 21H4V7.87c0-1.654 1.346-3 3-3s3 1.346 3 3V21z"/></g></svg>