<svg height="23" viewBox="0 0 23 23" width="23" xmlns="http://www.w3.org/2000/svg"><g fill="none" fill-rule="evenodd"><g fill="#666" transform="translate(1 1)"><path d="m17.4902 19.8616-5.712-10.528.068-.039 1.415-.817 6.262 10.21zm-7.888-12.794 2.766-1.597c.039.66.162 1.47.417 2.126l-.206.12-1.324.764c-.502-.649-1.12-1.103-1.653-1.413zm-2.249-1.174-1.817 1.049c-.115.066-.199.176-.233.304s-.017.264.05.379l.347.602c.082.14.033.321-.107.402l-1.324.764c-.138.077-.324.028-.402-.108l-1.877-3.252c-.04-.068-.051-.148-.03-.224.02-.076.069-.139.137-.178l1.323-.765c.046-.026.095-.039.147-.039.105 0 .203.056.256.147l.399.692c.138.239.444.32.683.183l1.816-1.049c.115-.066.199-.175.233-.303.035-.128.017-.265-.049-.38l-.4-.692c-.081-.14-.033-.321.121-.41.032-.019 3.22-1.965 6.819-1.965 1.47 0 2.803.325 3.983.967-2.179-.062-3.687.348-4.491 1.219-.363.394-.497.792-.545 1.065l-3.781 2.183c-.138.081-.323.029-.402-.107l-.173-.3c-.067-.115-.175-.199-.304-.234-.127-.033-.264-.016-.379.05zm13.291 12.708-6.778-11.051c-.438-.76-.559-2.291-.501-2.898.002-.017-.004-.033-.005-.049.001-.01.007-.018.007-.028-.001-.013-.006-.341.331-.688.388-.4 1.277-.877 3.303-.877.642 0 1.365.05 2.148.146.024.003.047.002.072.004.261.01.51-.22.51-.5 0-.192-.108-.358-.267-.442-1.67-1.439-3.695-2.168-6.019-2.168-3.88 0-7.205 2.028-7.332 2.107-.618.357-.831 1.15-.474 1.768l.149.259-.95.549-.149-.259c-.344-.595-1.172-.817-1.769-.474l-1.323.764c-.299.173-.514.452-.603.786s-.044.684.129.983l1.878 3.253c.231.399.661.647 1.122.647.226 0 .45-.061.646-.174l1.324-.764c.618-.357.831-1.15.474-1.768l-.098-.169.958-.553c.175.232.425.395.702.47.004.002.007.005.011.006.017.005 1.664.527 2.531 1.909l6.185 11.399c.064.119.174.206.303.243.045.013.091.018.136.018.087 0 .174-.022.25-.067l2.923-1.687c.116-.068.201-.179.234-.31s.012-.27-.058-.385z"/><path d="m4.1982 12.3186c-.276 0-.5.224-.5.5v2.175c0 .276.224.5.5.5s.5-.224.5-.5v-2.175c0-.276-.224-.5-.5-.5"/><path d="m2.2934 12.2171c-.233-.146-.542-.075-.689.158l-1.156 1.843c-.147.233-.076.542.158.689.082.052.174.077.265.077.166 0 .329-.083.423-.235l1.157-1.843c.147-.233.076-.542-.158-.689"/><path d="m6.792 12.3753c-.146-.234-.456-.305-.689-.158-.234.147-.305.456-.158.689l1.157 1.843c.094.151.257.234.423.234.091 0 .183-.024.266-.076.233-.147.304-.456.157-.689z"/></g><path d="m0 0h23v23h-23z"/></g></svg>