<svg xmlns="http://www.w3.org/2000/svg" width="24" height="24" viewBox="0 0 24 24"><g fill="none" fill-rule="evenodd"><path d="M0 0h24v24H0z"/><path fill="#29242d" d="M21.601 7.858l-1.656 1.656-2.24-2.24-.002-.002-2.24-2.239 1.655-1.657c.502-.502 1.38-.504 1.885.001l2.598 2.597c.252.252.39.586.39.942s-.139.69-.39.942zM4.583 16.665c.148.284.324.553.555.783.423.424.96.72 1.538.853.134.58.43 1.116.851 1.537.231.231.501.41.785.556l-3.736 1.001-.995-.994 1.002-3.736zm2.36.655a2.147 2.147 0 0 1-1.093-.586 2.173 2.173 0 0 1-.624-1.466l9.523-9.522 1.885 1.883-9.69 9.691zm12.29-7.093l-9.525 9.525a2.183 2.183 0 0 1-1.467-.626 2.171 2.171 0 0 1-.585-1.092l9.691-9.692 1.885 1.885zm3.081-4.966l-2.597-2.597c-.885-.885-2.428-.886-3.312 0l-2.01 2.01-.003.001c0 .001 0 .002-.002.003l-9.945 9.946a.475.475 0 0 0-.148.148l-.248.247a.52.52 0 0 0-.13.227L2.532 20.42v.002l-.516 1.92a.507.507 0 0 0 .13.49.513.513 0 0 0 .357.146h.001a.571.571 0 0 0 .13-.016l7.096-1.902a.507.507 0 0 0 .226-.13l.267-.266a.555.555 0 0 0 .11-.112l11.98-11.979c.442-.443.685-1.03.685-1.655a2.322 2.322 0 0 0-.685-1.656z"/></g></svg>