<svg xmlns="http://www.w3.org/2000/svg" width="24" height="24" viewBox="0 0 24 24"><g fill="none" fill-rule="evenodd"><path d="M0 0h24v24H0z"/><path fill="#29242d" d="M20.192 9.036A2.278 2.278 0 0 1 22 11.276a2.295 2.295 0 0 1-2.2 2.29 8.774 8.774 0 0 1-4.322 4.869 3.863 3.863 0 0 1-.847.771 3.166 3.166 0 0 1-3.138 2.812c-1.63 0-2.961-1.239-3.139-2.823a3.864 3.864 0 0 1-.839-.758 8.77 8.77 0 0 1-4.327-4.871A2.297 2.297 0 0 1 1 11.276a2.28 2.28 0 0 1 1.793-2.234c.728-4.204 4.401-7.327 8.7-7.327 1.236 0 2.417.266 3.494.735.23-.567.29-.996.291-1.008a.501.501 0 1 1 .995.12c-.002.015-.076.588-.39 1.331a8.854 8.854 0 0 1 4.309 6.143zm-.484 3.529a1.29 1.29 0 0 0 1.289-1.289c0-.703-.553-1.269-1.257-1.287a.502.502 0 0 1-.485-.438 7.834 7.834 0 0 0-3.841-5.767c-.67 1.057-1.838 2.16-3.876 2.474a.502.502 0 0 1-.153-.991c1.62-.25 2.571-1.097 3.129-1.931a7.757 7.757 0 0 0-3.021-.618c-3.926 0-7.264 2.939-7.762 6.835a.502.502 0 0 1-.48.438c-.7.023-1.248.589-1.248 1.285 0 .76.701 1.381 1.431 1.273a.65.65 0 0 1 .077-.005c.221 0 .443.137.509.347a7.757 7.757 0 0 0 2.873 3.987c-.003-.042-.012-.083-.012-.126 0-1.852 2.069-3.36 4.612-3.36 2.544 0 4.614 1.508 4.614 3.36 0 .043-.009.084-.011.126a7.763 7.763 0 0 0 2.872-3.987.502.502 0 0 1 .549-.347c.08.012.134.021.191.021zm-8.215 3.105a3.17 3.17 0 0 1 3.043 2.319c.354-.362.568-.785.568-1.237 0-1.278-1.654-2.357-3.611-2.357-1.956 0-3.609 1.079-3.609 2.357 0 .45.218.868.57 1.229.379-1.329 1.589-2.311 3.039-2.311zm0 5.345a2.173 2.173 0 0 0 2.171-2.171 2.174 2.174 0 0 0-2.171-2.171 2.174 2.174 0 0 0-2.171 2.171c0 1.198.974 2.171 2.171 2.171zM8.57 9.67a.753.753 0 1 1 0 1.505.753.753 0 0 1 0-1.505zm5.846 0a.752.752 0 1 1 0 1.503.752.752 0 0 1 0-1.503z"/></g></svg>