<svg xmlns="http://www.w3.org/2000/svg" width="24" height="24" viewBox="0 0 24 24"><g fill="none" fill-rule="evenodd"><path d="M0 0h24v24H0z"/><path fill="#29242d" d="M4.166 13.862L7.324 3h9.356l3.154 10.862H4.166zM16.5 21.029V22H7.517v-.971c0-.406.33-.736.736-.736h7.514c.404 0 .733.33.733.736zm4.443-6.933L17.535 2.36a.5.5 0 0 0-.48-.36H6.949a.5.5 0 0 0-.48.36l-3.45 11.862a.499.499 0 0 0 .48.64h2.287v2.12a.5.5 0 0 0 1 0v-2.12h4.716v4.431h-3.25c-.956 0-1.735.779-1.735 1.736V22.5a.5.5 0 0 0 .5.5H17a.5.5 0 0 0 .5-.5v-1.471c0-.957-.777-1.736-1.733-1.736h-3.265v-4.431h8.018a.5.5 0 0 0 .423-.766z"/></g></svg>