<svg xmlns="http://www.w3.org/2000/svg" width="24" height="24" viewBox="0 0 24 24"><g fill="none" fill-rule="evenodd"><path d="M0 0h24v24H0z"/><path fill="#29242d" d="M11.885 17.002a.5.5 0 0 1-.5-.5V10.65h-1.156a.499.499 0 1 1 0-1h3.312a.5.5 0 1 1 0 1h-1.156v5.852a.5.5 0 0 1-.5.5zM13.119 22a.5.5 0 0 1 0 1h-2.467a.5.5 0 0 1 0-1h2.467zm1.751-3.874a.5.5 0 0 1 0 1H8.966a.5.5 0 1 1 0-1h5.904zm0 1.936a.5.5 0 0 1 0 1H8.966a.5.5 0 1 1 0-1h5.904zM11.885 2c4.349 0 7.886 3.537 7.886 7.885a7.873 7.873 0 0 1-4.816 7.265.501.501 0 0 1-.655-.266.5.5 0 0 1 .267-.655 6.878 6.878 0 0 0 4.204-6.344C18.771 6.089 15.682 3 11.885 3A6.893 6.893 0 0 0 5 9.885a6.879 6.879 0 0 0 4.203 6.344.5.5 0 0 1-.388.921A7.872 7.872 0 0 1 4 9.885C4 5.537 7.537 2 11.885 2z"/></g></svg>