<svg xmlns="http://www.w3.org/2000/svg" width="24" height="24" viewBox="0 0 24 24"><g fill="none" fill-rule="evenodd"><path d="M0 0h24v24H0z"/><path fill="#29242d" d="M18.5 20.691c-1.752 0-3.194-1.298-3.447-2.98h3.977a.499.499 0 0 0 .462-.692l-1.363-3.293c.123-.013.244-.037.371-.037 1.93 0 3.5 1.571 3.5 3.502 0 1.93-1.57 3.5-3.5 3.5zm-1.355-6.729l1.137 2.75h-3.233a3.503 3.503 0 0 1 2.096-2.75zm-1.322-3.19l.94 2.268a4.495 4.495 0 0 0-2.714 3.671h-2.57l4.344-5.94zM6.5 20.691c-1.93 0-3.5-1.57-3.5-3.5A3.5 3.5 0 0 1 6.393 13.7l-.907 3.381a.501.501 0 0 0 .967.26l.943-3.52A3.497 3.497 0 0 1 10 17.19c0 1.93-1.57 3.5-3.5 3.5zm1.857-10.458h6.621l-4.176 5.708a4.492 4.492 0 0 0-3.148-3.084l.703-2.624zM18.5 12.69c-.264 0-.518.034-.769.078l-1.217-2.94 1.142-1.563h1.222a.5.5 0 1 0 0-1h-2.943a.5.5 0 1 0 0 1h.483l-.709.97H8.625l.844-3.147c.626-2.337 1.918-2.112 2.068-2.078a.5.5 0 0 0 .253-.967c-.021-.004-2.381-.595-3.288 2.785l-.993 3.707c-.005.011-.006.024-.01.037l-.84 3.134c-.055-.002-.104-.016-.159-.016-2.481 0-4.5 2.02-4.5 4.502 0 2.481 2.019 4.5 4.5 4.5 2.304 0 4.187-1.746 4.447-3.98h3.106c.26 2.234 2.143 3.98 4.447 3.98 2.481 0 4.5-2.019 4.5-4.5a4.507 4.507 0 0 0-4.5-4.502z"/></g></svg>