<svg xmlns="http://www.w3.org/2000/svg" width="187" height="30" viewBox="0 0 187 30"><g fill="none" fill-rule="evenodd"><path fill="#F5548C" d="M14.367123 8.083225s3.226552-3.398989.605608-6.758543c0 0-3.736517-3.944314-6.824581 1.779354-.11527.21083-.254883.06643-.271117.032001-3.0962-5.803594-6.86432-1.741133-6.86432-1.741133-2.618093 3.523256.666993 6.75018.666993 6.75018 2.589225 2.95711 6.13446 5.759261 6.13446 5.759261s.194684.215223.4459 0c0 0 3.5406-2.83446 6.107057-5.82112zM14.367123 24.083225s3.226552-3.398989.605608-6.758543c0 0-3.736517-3.944314-6.824581 1.779354-.11527.21083-.254883.06643-.271117.032001-3.0962-5.803594-6.86432-1.741133-6.86432-1.741133-2.618093 3.523256.666993 6.75018.666993 6.75018 2.589225 2.95711 6.13446 5.759261 6.13446 5.759261s.194684.215223.4459 0c0 0 3.5406-2.83446 6.107057-5.82112zM33.367123 8.083225s3.226552-3.398989.605608-6.758543c0 0-3.736517-3.944314-6.824581 1.779354-.11527.21083-.254883.06643-.271117.032001-3.0962-5.803594-6.86432-1.741133-6.86432-1.741133-2.618093 3.523256.666993 6.75018.666993 6.75018 2.589225 2.95711 6.13446 5.759261 6.13446 5.759261s.194684.215223.4459 0c0 0 3.5406-2.83446 6.107057-5.82112zM33.367123 24.083225s3.226552-3.398989.605608-6.758543c0 0-3.736517-3.944314-6.824581 1.779354-.11527.21083-.254883.06643-.271117.032001-3.0962-5.803594-6.86432-1.741133-6.86432-1.741133-2.618093 3.523256.666993 6.75018.666993 6.75018 2.589225 2.95711 6.13446 5.759261 6.13446 5.759261s.194684.215223.4459 0c0 0 3.5406-2.83446 6.107057-5.82112zM52.367123 8.083225s3.226552-3.398989.605608-6.758543c0 0-3.736517-3.944314-6.824581 1.779354-.11527.21083-.254883.06643-.271117.032001-3.0962-5.803594-6.86432-1.741133-6.86432-1.741133-2.618093 3.523256.666993 6.75018.666993 6.75018 2.589225 2.95711 6.13446 5.759261 6.13446 5.759261s.194684.215223.4459 0c0 0 3.5406-2.83446 6.107057-5.82112zM52.367123 24.083225s3.226552-3.398989.605608-6.758543c0 0-3.736517-3.944314-6.824581 1.779354-.11527.21083-.254883.06643-.271117.032001-3.0962-5.803594-6.86432-1.741133-6.86432-1.741133-2.618093 3.523256.666993 6.75018.666993 6.75018 2.589225 2.95711 6.13446 5.759261 6.13446 5.759261s.194684.215223.4459 0c0 0 3.5406-2.83446 6.107057-5.82112zM71.367122 8.083225s3.226553-3.398989.60561-6.758543c0 0-3.736518-3.944314-6.824582 1.779354-.11527.21083-.254883.06643-.271117.032001-3.0962-5.803594-6.86432-1.741133-6.86432-1.741133-2.618093 3.523256.666993 6.75018.666993 6.75018 2.589225 2.95711 6.13446 5.759261 6.13446 5.759261s.194684.215223.4459 0c0 0 3.5406-2.83446 6.107056-5.82112zM71.367122 24.083225s3.226553-3.398989.60561-6.758543c0 0-3.736518-3.944314-6.824582 1.779354-.11527.21083-.254883.06643-.271117.032001-3.0962-5.803594-6.86432-1.741133-6.86432-1.741133-2.618093 3.523256.666993 6.75018.666993 6.75018 2.589225 2.95711 6.13446 5.759261 6.13446 5.759261s.194684.215223.4459 0c0 0 3.5406-2.83446 6.107056-5.82112z"/><path fill="#E9E7E7" d="M84 29.966957s.00885.119286.260066-.09543c0 0 3.5406-2.82777 6.107057-5.80738 0 0 3.226552-3.390967.605608-6.742591 0 0-3.736517-3.935005-6.824581 1.775154-.11527.210332-.14815.202248-.14815.202248"/><path fill="#F5548C" d="M83.998949 29.966957s-.00885.119286-.260067-.09543c0 0-3.5406-2.82777-6.107056-5.80738 0 0-3.226552-3.390967-.605609-6.742591 0 0 3.736518-3.935005 6.824582 1.775154.11527.210332.149201.172898.149201.172898M90.367122 8.083225s3.226553-3.398989.60561-6.758543c0 0-3.736518-3.944314-6.824582 1.779354-.11527.21083-.254883.06643-.271117.032001-3.0962-5.803594-6.86432-1.741133-6.86432-1.741133-2.618093 3.523256.666993 6.75018.666993 6.75018 2.589225 2.95711 6.13446 5.759261 6.13446 5.759261s.194684.215223.4459 0c0 0 3.5406-2.83446 6.107056-5.82112z"/><path fill="#E9E7E7" d="M109.367122 8.083225s3.226553-3.398989.60561-6.758543c0 0-3.736518-3.944314-6.824582 1.779354-.11527.21083-.254883.06643-.271117.032001-3.0962-5.803594-6.86432-1.741133-6.86432-1.741133-2.618093 3.523256.666993 6.75018.666993 6.75018 2.589225 2.95711 6.13446 5.759261 6.13446 5.759261s.194684.215223.4459 0c0 0 3.5406-2.83446 6.107056-5.82112zM109.367122 24.083225s3.226553-3.398989.60561-6.758543c0 0-3.736518-3.944314-6.824582 1.779354-.11527.21083-.254883.06643-.271117.032001-3.0962-5.803594-6.86432-1.741133-6.86432-1.741133-2.618093 3.523256.666993 6.75018.666993 6.75018 2.589225 2.95711 6.13446 5.759261 6.13446 5.759261s.194684.215223.4459 0c0 0 3.5406-2.83446 6.107056-5.82112zM128.367122 8.083225s3.226553-3.398989.60561-6.758543c0 0-3.736518-3.944314-6.824582 1.779354-.11527.21083-.254883.06643-.271117.032001-3.0962-5.803594-6.86432-1.741133-6.86432-1.741133-2.618093 3.523256.666993 6.75018.666993 6.75018 2.589225 2.95711 6.13446 5.759261 6.13446 5.759261s.194684.215223.4459 0c0 0 3.5406-2.83446 6.107056-5.82112zM128.367122 24.083225s3.226553-3.398989.60561-6.758543c0 0-3.736518-3.944314-6.824582 1.779354-.11527.21083-.254883.06643-.271117.032001-3.0962-5.803594-6.86432-1.741133-6.86432-1.741133-2.618093 3.523256.666993 6.75018.666993 6.75018 2.589225 2.95711 6.13446 5.759261 6.13446 5.759261s.194684.215223.4459 0c0 0 3.5406-2.83446 6.107056-5.82112zM147.367122 8.083225s3.226553-3.398989.60561-6.758543c0 0-3.736518-3.944314-6.824582 1.779354-.11527.21083-.254883.06643-.271117.032001-3.0962-5.803594-6.86432-1.741133-6.86432-1.741133-2.618093 3.523256.666993 6.75018.666993 6.75018 2.589225 2.95711 6.13446 5.759261 6.13446 5.759261s.194684.215223.4459 0c0 0 3.5406-2.83446 6.107057-5.82112zM147.367122 24.083225s3.226553-3.398989.60561-6.758543c0 0-3.736518-3.944314-6.824582 1.779354-.11527.21083-.254883.06643-.271117.032001-3.0962-5.803594-6.86432-1.741133-6.86432-1.741133-2.618093 3.523256.666993 6.75018.666993 6.75018 2.589225 2.95711 6.13446 5.759261 6.13446 5.759261s.194684.215223.4459 0c0 0 3.5406-2.83446 6.107057-5.82112zM166.367122 8.083225s3.226553-3.398989.60561-6.758543c0 0-3.736518-3.944314-6.824582 1.779354-.11527.21083-.254883.06643-.271117.032001-3.0962-5.803594-6.86432-1.741133-6.86432-1.741133-2.618093 3.523256.666993 6.75018.666993 6.75018 2.589225 2.95711 6.13446 5.759261 6.13446 5.759261s.194684.215223.4459 0c0 0 3.5406-2.83446 6.107057-5.82112zM166.367122 24.083225s3.226553-3.398989.60561-6.758543c0 0-3.736518-3.944314-6.824582 1.779354-.11527.21083-.254883.06643-.271117.032001-3.0962-5.803594-6.86432-1.741133-6.86432-1.741133-2.618093 3.523256.666993 6.75018.666993 6.75018 2.589225 2.95711 6.13446 5.759261 6.13446 5.759261s.194684.215223.4459 0c0 0 3.5406-2.83446 6.107057-5.82112zM185.367122 8.083225s3.226553-3.398989.60561-6.758543c0 0-3.736518-3.944314-6.824582 1.779354-.11527.21083-.254883.06643-.271117.032001-3.0962-5.803594-6.86432-1.741133-6.86432-1.741133-2.618093 3.523256.666993 6.75018.666993 6.75018 2.589225 2.95711 6.13446 5.759261 6.13446 5.759261s.194684.215223.4459 0c0 0 3.5406-2.83446 6.107057-5.82112zM185.367122 24.083225s3.226553-3.398989.60561-6.758543c0 0-3.736518-3.944314-6.824582 1.779354-.11527.21083-.254883.06643-.271117.032001-3.0962-5.803594-6.86432-1.741133-6.86432-1.741133-2.618093 3.523256.666993 6.75018.666993 6.75018 2.589225 2.95711 6.13446 5.759261 6.13446 5.759261s.194684.215223.4459 0c0 0 3.5406-2.83446 6.107057-5.82112z"/></g></svg>