<svg xmlns="http://www.w3.org/2000/svg" width="18" height="18" viewBox="0 0 18 18">
  <g fill="none" fill-rule="evenodd" transform="translate(-3 -3)">
    <circle cx="12" cy="12" r="12" fill="none"/>
    <path fill="#5C5C5C" d="M11.8125167,3.75 C9.52101258,3.75 9.23367863,3.75971289 8.33372954,3.80077495 C7.43565604,3.84173653 6.82230406,3.98438198 6.28561689,4.19297457 C5.73077667,4.40856714 5.2602376,4.69707333 4.79113872,5.16613872 C4.32207333,5.6352376 4.03356714,6.10577667 3.81797457,6.66061689 C3.60938198,7.19730406 3.46673653,7.81065604 3.42577495,8.70872954 C3.38471289,9.60867863 3.375,9.89601258 3.375,12.1875167 C3.375,14.4789874 3.38471289,14.7663214 3.42577495,15.6662705 C3.46673653,16.564344 3.60938198,17.1776959 3.81797457,17.7143831 C4.03356714,18.2692233 4.32207333,18.7397624 4.79113872,19.2088613 C5.2602376,19.6779267 5.73077667,19.9664329 6.28561689,20.1820589 C6.82230406,20.390618 7.43565604,20.5332635 8.33372954,20.5742251 C9.23367863,20.6152871 9.52101258,20.625 11.8125167,20.625 C14.1039874,20.625 14.3913214,20.6152871 15.2912705,20.5742251 C16.189344,20.5332635 16.8026959,20.390618 17.3393831,20.1820589 C17.8942233,19.9664329 18.3647624,19.6779267 18.8338613,19.2088613 C19.3029267,18.7397624 19.5914329,18.2692233 19.8070589,17.7143831 C20.015618,17.1776959 20.1582635,16.564344 20.1992251,15.6662705 C20.2402871,14.7663214 20.25,14.4789874 20.25,12.1875167 C20.25,9.89601258 20.2402871,9.60867863 20.1992251,8.70872954 C20.1582635,7.81065604 20.015618,7.19730406 19.8070589,6.66061689 C19.5914329,6.10577667 19.3029267,5.6352376 18.8338613,5.16613872 C18.3647624,4.69707333 17.8942233,4.40856714 17.3393831,4.19297457 C16.8026959,3.98438198 16.189344,3.84173653 15.2912705,3.80077495 C14.3913214,3.75971289 14.1039874,3.75 11.8125167,3.75 Z M11.8125167,5.27026755 C14.0654038,5.27026755 14.3322737,5.27887518 15.221974,5.31946834 C16.044622,5.35698018 16.4913812,5.49443426 16.788696,5.6099841 C17.1825368,5.76304578 17.4636076,5.94588248 17.7588458,6.2411542 C18.0541175,6.53639243 18.2369542,6.81746325 18.3900159,7.21130401 C18.5055657,7.50861879 18.6430198,7.95537804 18.6805317,8.77802595 C18.7211248,9.66772628 18.7297324,9.93459618 18.7297324,12.1875167 C18.7297324,14.4404038 18.7211248,14.7072737 18.6805317,15.596974 C18.6430198,16.419622 18.5055657,16.8663812 18.3900159,17.163696 C18.2369542,17.5575368 18.0541175,17.8386076 17.7588458,18.1338458 C17.4636076,18.4291175 17.1825368,18.6119542 16.788696,18.7650159 C16.4913812,18.8805657 16.044622,19.0180198 15.221974,19.0555317 C14.3324077,19.0961248 14.0655713,19.1047324 11.8125167,19.1047324 C9.55942872,19.1047324 9.2926258,19.0961248 8.40302595,19.0555317 C7.58037804,19.0180198 7.13361879,18.8805657 6.83630401,18.7650159 C6.44246325,18.6119542 6.16139243,18.4291175 5.8661542,18.1338458 C5.57091597,17.8386076 5.38804578,17.5575368 5.2349841,17.163696 C5.11943426,16.8663812 4.98198018,16.419622 4.94446834,15.596974 C4.90387518,14.7072737 4.89526755,14.4404038 4.89526755,12.1875167 C4.89526755,9.93459618 4.90387518,9.66772628 4.94446834,8.77802595 C4.98198018,7.95537804 5.11943426,7.50861879 5.2349841,7.21130401 C5.38804578,6.81746325 5.57088248,6.53639243 5.8661542,6.2411542 C6.16139243,5.94588248 6.44246325,5.76304578 6.83630401,5.6099841 C7.13361879,5.49443426 7.58037804,5.35698018 8.40302595,5.31946834 C9.29272628,5.27887518 9.55959618,5.27026755 11.8125167,5.27026755 Z M11.8125167,7.85473245 C9.41956317,7.85473245 7.47973245,9.79456317 7.47973245,12.1875167 C7.47973245,14.5804368 9.41956317,16.5202676 11.8125167,16.5202676 C14.2054368,16.5202676 16.1452676,14.5804368 16.1452676,12.1875167 C16.1452676,9.79456317 14.2054368,7.85473245 11.8125167,7.85473245 Z M11.8125167,15 C10.2591919,15 9,13.7408081 9,12.1875167 C9,10.6341919 10.2591919,9.375 11.8125167,9.375 C13.3658081,9.375 14.625,10.6341919 14.625,12.1875167 C14.625,13.7408081 13.3658081,15 11.8125167,15 Z M17.3289669,7.68355121 C17.3289669,7.12435694 16.8756431,6.67103312 16.3164488,6.67103312 C15.757288,6.67103312 15.3039642,7.12435694 15.3039642,7.68355121 C15.3039642,8.24274548 15.757288,8.6960358 16.3164488,8.6960358 C16.8756431,8.6960358 17.3289669,8.24274548 17.3289669,7.68355121 Z"/>
  </g>
</svg>
