<svg viewBox="0 0 90 30" xmlns="http://www.w3.org/2000/svg" xmlns:xlink="http://www.w3.org/1999/xlink"><clipPath id="a"><path d="m65.41 6.78.5 9.88 8.29-5.45-8.15-4.77a.39.39 0 0 0 -.64.34z"/></clipPath><g fill="#c2c3c3"><path d="m30.32 28.24c-2.55 0-4-2.18-4-4.6v-8.73a1.39 1.39 0 0 1 1.53-1.31 1.25 1.25 0 0 1 1.39 1.18v8.22c0 1.59.41 2.93 1.93 2.93.47 0 .84-.25 1.21-.25s1.12.15 1.12.87c0 1.27-2.11 1.74-3.14 1.74m-.63-18.29a2 2 0 1 1 -2-2 2 2 0 0 1 2 2"/><path d="m46.46 28.24c-2.55 0-4-2.18-4-4.6 0-1.81.34-2.89.34-4.38s-.34-3-2-3c-2.3 0-4.81 4-4.81 8.08v2.66a1.26 1.26 0 0 1 -1.4 1.12c-.62 0-1.49-.31-1.49-1.06v-12.19a1.35 1.35 0 0 1 1.49-1.3 1.26 1.26 0 0 1 1.41 1.18v2.42c1.43-2.3 2.79-3.66 5.62-3.66 3.23 0 4 2.3 4 5.06 0 1.81-.22 2.86-.22 4.38s.31 2.93 1.84 2.93c.46 0 .71-.25 1.21-.25.74 0 1.09.15 1.09.87 0 1.27-2.09 1.74-3.11 1.74"/><path d="m61 28.05c-1.83 0-3-1.31-3.79-2.77-.34-.56-1.74-3.32-2.08-3.91-1.34-.41-1.55-1.09-1.55-1.84a.84.84 0 0 1 .93-.84c.59 0 1.68.62 2.58.62a2.33 2.33 0 0 0 2.08-2 1.7 1.7 0 0 0 -1.86-1.55c-2.55 0-5.35 4.69-5.35 7.52v3.85a1.25 1.25 0 0 1 -1.4 1.12c-.62 0-1.49-.31-1.49-1.05v-24.48a1.36 1.36 0 0 1 1.49-1.3 1.25 1.25 0 0 1 1.44 1.18v14.72c1.43-2.29 2.8-3.91 5.63-3.91 3.23 0 4.34 2.3 4.34 3.7 0 2.05-1.64 3.32-3.47 4.1.55 1.4 1.27 4.32 3.23 4.32.52 0 1.18-.34 1.68-.34s.62.18.62.9c0 1.62-1.71 2-3 2"/></g><path d="m4.34 8.55c-2.1-3.75-4.26-4.55-4.34-5.09a1.68 1.68 0 0 1 1.37-2.1c1.92-.22 3.25 1.36 4.63 3.42a8.85 8.85 0 0 1 6.35-4.09 9.66 9.66 0 0 1 10.93 8.18c.69 5.56-3.68 10.36-9.16 11-1.19.14-2.63 0-2.8-1.36a1.23 1.23 0 0 1 1.07-1.48c.16 0 .63 0 1.54-.06 3.13-.38 6.8-3.33 6.27-7.59a6.8 6.8 0 0 0 -7.44-5.7c-2.43.29-4 2.12-5.16 4.19a50.31 50.31 0 0 1 3.4 12.74c.41 3.29.33 8.55-3.19 8.76-2.93.18-4.44-2.28-5-6.71a34.89 34.89 0 0 1 1.45-13.94zm1.79 3.07a30.66 30.66 0 0 0 -.35 11.92c.19 1.46.6 3 1.58 2.87s1.26-1.41.87-5.41a50.65 50.65 0 0 0 -2.1-9.37" fill="#e9608b"/><path d="m86.86 28.24c-2.54 0-4-2.18-4-4.6v-8.73a1.39 1.39 0 0 1 1.53-1.31 1.25 1.25 0 0 1 1.39 1.18v8.22c0 1.59.41 2.93 1.93 2.93.47 0 .84-.25 1.21-.25s1.12.15 1.12.87c0 1.27-2.11 1.74-3.14 1.74m-.63-18.29a2 2 0 1 1 -2-2 2 2 0 0 1 2 2" fill="#c2c3c3"/><path d="m73 11a7.39 7.39 0 0 0 -6.2 11.43 14.9 14.9 0 0 0 -2.59-.06h-.07a1.8 1.8 0 0 0 -1 .41 1.72 1.72 0 0 0 1.32 3h.26l.44-.07c-.08.23-.16.47-.22.7v.22a1.68 1.68 0 0 0 .4 1.35 1.72 1.72 0 0 0 3-.74 15.09 15.09 0 0 0 .34-2.77v-.05a7.4 7.4 0 1 0 4.32-13.42m.12 11.83a4.67 4.67 0 0 1 -1.94-.43 2.76 2.76 0 0 0 -3.07.44 2.72 2.72 0 0 0 .89-2 2.94 2.94 0 0 0 -.17-1 4.56 4.56 0 1 1 4.27 3" fill="#e9608b"/><path d="m75.05 16.26a1.2 1.2 0 0 0 -1 .53l-.05.21-.16.26-.28-.44-.09-.11a1.19 1.19 0 0 0 -.9-.4 1.21 1.21 0 0 0 -1 1.93 10.44 10.44 0 0 0 2.24 2.16l.07-.05a10.65 10.65 0 0 0 2.12-2.16 1.17 1.17 0 0 0 .22-.71 1.19 1.19 0 0 0 -1.2-1.19" fill="#e9608b"/><path d="m63.57 5.89c-.1-.13-.17-.2-.23-.29s-.27-.38-.34-.6a.53.53 0 0 1 0-.64.58.58 0 0 1 .73-.09c.15.07.28.16.49.28a7 7 0 0 1 -.06-.72.33.33 0 0 1 .53-.27.58.58 0 0 1 .14.13l.17.14c.09-.2.15-.38.24-.55a.3.3 0 0 1 .34-.19.38.38 0 0 1 .32.27c.06.22.11.44.18.7l.28.07a.5.5 0 0 1 .35.69c-.1.26-.22.52-.34.77a.61.61 0 0 1 -.79.27c-.27-.07-.41 0-.52.22a.88.88 0 0 1 -.61.45c-.44.1-.89.14-1.33.2h-.12a.41.41 0 0 1 -.36-.3.34.34 0 0 1 .2-.4c.21-.03.43-.03.73-.14z" fill="#e9608b" fill-rule="evenodd"/><path d="m65.41 6.78.5 9.88 8.29-5.45-8.15-4.77a.39.39 0 0 0 -.64.34z" fill="#58c4cb"/><g clip-path="url(#a)" fill="#fff"><circle cx="68.49" cy="11.89" r=".92"/><circle cx="71.25" cy="12.75" r=".92"/><circle cx="71.25" cy="9.46" r=".92"/><circle cx="67.66" cy="9.03" r=".92"/><circle cx="68.17" cy="6.62" r=".92"/><circle cx="65.01" cy="7.27" r=".92"/><circle cx="65.45" cy="10.51" r=".92"/><circle cx="65.63" cy="13.45" r=".92"/></g></svg>