<?xml version="1.0" encoding="UTF-8"?>
<svg width="20px" height="16px" viewBox="0 0 20 16" version="1.1" xmlns="http://www.w3.org/2000/svg" xmlns:xlink="http://www.w3.org/1999/xlink">
    <!-- Generator: Sketch 51 (57462) - http://www.bohemiancoding.com/sketch -->
    <title>badge_wechat</title>
    <desc>Created with Sketch.</desc>
    <defs></defs>
    <g id="spec" stroke="none" stroke-width="1" fill="none" fill-rule="evenodd">
        <g id="web-/-top_navigation" transform="translate(-3072.000000, -2436.000000)">
            <rect fill="#FFFFFF" x="0" y="0" width="3998" height="4229"></rect>
            <g id="Email-footer/gray/badge_wechat" transform="translate(3070.000000, 2432.000000)">
                <g id="badge_wechat">
                    <path d="M12,24 C18.627417,24 24,18.627417 24,12 C24,5.372583 18.627417,0 12,0 C5.372583,0 0,5.372583 0,12 C0,18.627417 5.372583,24 12,24 Z" id="bg_wechat" fill-opacity="0" fill="#000000"></path>
                    <path d="M21.375,14.400389 C21.375,11.6873394 18.8063627,9.52530438 15.6376056,9.52530438 C12.4688484,9.52530438 9.88661333,11.669159 9.88661333,14.3822086 C9.88661333,17.1738259 12.4175951,19.2754736 15.6376056,19.2754736 C16.4742109,19.2754736 17.2689459,19.1246432 17.9856626,18.8528547 L19.6949597,19.8528101 L19.6954212,19.8524734 C19.7186483,19.8664913 19.7455978,19.875 19.7747624,19.875 C19.8597027,19.875 19.9285841,19.8065019 19.9285841,19.7219659 C19.9285841,19.7084071 19.9262152,19.695491 19.9228927,19.6829728 L19.9234157,19.6826055 L19.3896545,18.0955196 C20.6056455,17.2048918 21.375,15.8851258 21.375,14.400389 L21.375,14.400389 Z M13.5885779,13.3593899 C13.1556622,13.3593899 12.8047334,13.0102885 12.8047334,12.5795894 C12.8047334,12.1489208 13.1556622,11.7997583 13.5885779,11.7997583 C14.0215244,11.7997583 14.3724224,12.1489208 14.3724224,12.5795894 C14.3724224,13.0102885 14.0215244,13.3593899 13.5885779,13.3593899 L13.5885779,13.3593899 Z M17.7462238,11.8112358 C18.173848,11.8112358 18.5204698,12.1561134 18.5204698,12.5815176 C18.5204698,13.0069218 18.173848,13.3517382 17.7462238,13.3517382 C17.3186611,13.3517382 16.9720086,13.0069218 16.9720086,12.5815176 C16.9720086,12.1561134 17.3186611,11.8112358 17.7462238,11.8112358 Z M9.44563737,14.4319446 C9.44563737,14.8885065 9.51091929,15.325174 9.63351516,15.7377539 C9.48243151,15.7446711 9.32974813,15.7478542 9.17518811,15.7461402 C8.36580926,15.7370806 7.59627021,15.6002681 6.88795219,15.3593312 L4.76912024,16.6249232 L4.76865877,16.6245865 C4.7454317,16.6386044 4.71848215,16.6471131 4.68934832,16.6471131 C4.604408,16.6471131 4.53552665,16.5786151 4.53552665,16.494079 C4.53552665,16.4805202 4.53786474,16.4676347 4.54118729,16.4551165 L4.54069506,16.4547187 L5.1406611,14.4726517 C3.59847581,13.3848854 2.62524611,11.7110597 2.625,9.89032129 C2.6245693,6.87971221 5.55847151,4.16654019 9.25794417,4.12546584 C12.6971198,4.08726853 15.5852755,6.40347012 15.9747519,9.08986117 C15.9319587,9.08854508 15.8891655,9.0872902 15.846157,9.08661685 C12.1381626,9.0298412 9.44563737,11.5088405 9.44563737,14.4319446 Z M12.0042455,7.19979832 C11.5330897,7.19979832 11.1511505,7.57978197 11.1511505,8.04849479 C11.1511505,8.5172076 11.5330897,8.89722186 12.0042455,8.89722186 C12.4753705,8.89722186 12.8572789,8.5172076 12.8572789,8.04849479 C12.8572789,7.57978197 12.4753705,7.19979832 12.0042455,7.19979832 Z M6.76114161,8.89976222 C7.23208203,8.89976222 7.61389818,8.51993161 7.61389818,8.05137183 C7.61389818,7.58284265 7.23208203,7.20298143 6.76114161,7.20298143 C6.29017043,7.20298143 5.90838504,7.58284265 5.90838504,8.05137183 C5.90838504,8.51993161 6.29017043,8.89976222 6.76114161,8.89976222 Z" id="icon_wechat" fill="#3C373E"></path>
                </g>
            </g>
        </g>
    </g>
</svg>