<?xml version="1.0" encoding="UTF-8"?>
<svg width="20px" height="16px" viewBox="0 0 20 16" version="1.1" xmlns="http://www.w3.org/2000/svg" xmlns:xlink="http://www.w3.org/1999/xlink">
    <!-- Generator: Sketch 51 (57462) - http://www.bohemiancoding.com/sketch -->
    <title>badge_weibo</title>
    <desc>Created with Sketch.</desc>
    <defs></defs>
    <g id="spec" stroke="none" stroke-width="1" fill="none" fill-rule="evenodd">
        <g id="web-/-top_navigation" transform="translate(-2984.000000, -2436.000000)">
            <rect fill="#FFFFFF" x="0" y="0" width="3998" height="4229"></rect>
            <g id="Email-footer/gray/badge_weibo" transform="translate(2982.000000, 2432.000000)">
                <g id="badge_weibo">
                    <path d="M12,24 C18.627417,24 24,18.627417 24,12 C24,5.372583 18.627417,0 12,0 C5.372583,0 0,5.372583 0,12 C0,18.627417 5.372583,24 12,24 Z" id="bg_weibo" fill-opacity="0" fill="#000000"></path>
                    <path d="M10.501489,18.7501794 C7.39781379,19.0598395 4.71846622,17.6399964 4.51652414,15.5771102 C4.31508069,13.5144764 6.6685785,11.5906471 9.77225374,11.2802299 C12.8764276,10.9690556 15.5557752,12.3896558 15.7572186,14.4517849 C15.9584128,16.5151758 13.6056629,18.4395099 10.501489,18.7501794 M16.7100861,11.9020737 C17.7856146,12.239747 18.9825577,13.0561694 18.9825577,14.4949404 C18.9825577,16.8758149 15.5904294,19.875 10.4912673,19.875 C6.60126447,19.875 2.625,17.9668177 2.625,14.828071 C2.625,13.1871504 3.65191287,11.2895677 5.42052659,9.49899055 C7.78250098,7.10903069 10.5366419,6.02029924 11.5720314,7.06940834 C12.0290188,7.53150089 12.0731469,8.3317715 11.7797076,9.2872507 C11.6263812,9.76877588 12.2257253,9.50201901 12.2257253,9.50328087 C14.1347013,8.69392487 15.8001002,8.64673137 16.4089181,9.52675143 C16.7335213,9.99616277 16.7023574,10.6538434 16.403184,11.4165106 C16.2648162,11.7675596 16.4460655,11.8220719 16.7100861,11.9020737 Z M20.0962309,6.15834655 L20.0962309,6.15809418 C21.3283269,7.53881967 21.6601601,9.4210077 21.1346121,11.0722756 C21.1343628,11.0732851 21.1343628,11.0747993 21.1343628,11.0753041 C21.0122003,11.4563853 20.6073189,11.6653491 20.2306096,11.5419393 C19.8524045,11.4185296 19.6459749,11.0094351 19.767888,10.6268396 L19.7676387,10.6265872 C20.1423535,9.45280653 19.9047599,8.11372237 19.0304255,7.13224889 C18.1545952,6.1507754 16.8639111,5.77549871 15.6712063,6.03165597 C15.283278,6.11569574 14.9018319,5.86483828 14.8193099,5.47290506 C14.7360399,5.08071946 14.9836059,4.69433841 15.3710356,4.61029864 L15.3715342,4.61029864 C17.0484014,4.24940713 18.8648828,4.77635921 20.0962309,6.15834655 Z M18.2049561,7.88583074 L18.2047068,7.88557837 C18.8055468,8.55865365 18.9661032,9.47501524 18.7093127,10.2795762 C18.6046019,10.6089212 18.2563142,10.7881051 17.9312124,10.6828661 C17.6063599,10.5763653 17.4288503,10.2232973 17.533561,9.89496172 L17.5330624,9.89496172 C17.6592138,9.50151426 17.5801822,9.05330215 17.2869922,8.72370473 C16.9938022,8.39536917 16.5607487,8.27069756 16.1613521,8.35625156 L16.1613521,8.35574681 C15.8285216,8.42918698 15.5001788,8.21265207 15.4286265,7.87598824 C15.3568248,7.53755781 15.5697366,7.20493193 15.9038136,7.133006 C16.7208064,6.95710294 17.6056119,7.21300783 18.2049561,7.88583074 Z M10.8118815,12.8673954 C9.33471257,12.4782383 7.6650754,13.2234919 7.02359766,14.5411244 C6.37015298,15.8847513 7.0021569,17.3765203 8.49428448,17.8641024 C10.0402633,18.3685934 11.8619803,17.5953266 12.4957294,16.1451989 C13.1205033,14.7271224 12.3404085,13.2674045 10.8118815,12.8673954 Z M9.68374826,16.2991456 C9.38357757,16.7839516 8.74060396,16.9964486 8.25619228,16.7725949 C7.77901062,16.5527791 7.6383991,15.9892332 7.93881911,15.516541 C8.23525014,15.0458678 8.85653367,14.8358946 9.33720568,15.0400633 C9.82336254,15.2497841 9.97893273,15.8092922 9.68374826,16.2991456 Z M10.6727658,15.0138166 C10.5643155,15.2020859 10.3242288,15.2924349 10.1362481,15.2139474 C9.95125919,15.1372264 9.89341899,14.9267484 9.99837901,14.7420123 C10.1065801,14.5585381 10.3374423,14.4686938 10.5216832,14.5426387 C10.7091653,14.6120409 10.7764793,14.8247902 10.6727658,15.0138166 Z" id="icon_weibo" fill="#3C373E"></path>
                </g>
            </g>
        </g>
    </g>
</svg>