<svg xmlns="http://www.w3.org/2000/svg" width="24" height="24" viewBox="0 0 24 24"><g fill="none" fill-rule="evenodd"><path d="M0 0h24v24H0z"/><path fill="#29242d" d="M12.5 21.959c-4.136 0-7.5-3.364-7.5-7.5 0-3.171 1.988-5.867 4.775-6.962l1.174 1.173C8.391 9.355 6.5 11.688 6.5 14.459c0 3.309 2.691 6 6 6s6-2.691 6-6c0-2.789-1.915-5.132-4.497-5.802l1.176-1.176C17.989 8.564 20 11.271 20 14.459c0 4.136-3.364 7.5-7.5 7.5zM9.686 3h5.689l1.437 1.436-.102.101c-.022-.002-.039-.012-.061-.012H8.352c-.039 0-.075.014-.112.023l-.052-.052L9.686 3zm2.466 5.459L9.218 5.525h6.504l-2.935 2.934h-.635zm.348 1c2.757 0 5 2.243 5 5s-2.243 5-5 5-5-2.243-5-5 2.243-5 5-5zm3.438-2.736l1.934-1.934a.5.5 0 0 0 0-.707l-1.936-1.935A.5.5 0 0 0 15.582 2H9.479a.5.5 0 0 0-.354.147L7.128 4.143a.496.496 0 0 0 0 .707L9.02 6.741C6.071 8.075 4 11.018 4 14.459c0 4.687 3.813 8.5 8.5 8.5 4.687 0 8.5-3.813 8.5-8.5 0-3.457-2.091-6.411-5.062-7.736z"/></g></svg>