<svg xmlns="http://www.w3.org/2000/svg" width="24" height="24" viewBox="0 0 24 24"><g fill="none" fill-rule="evenodd"><path d="M0 0h24v24H0z"/><path fill="#29242d" d="M21.027 5.68a.746.746 0 0 1-.732.745c.242 1.246.916 6.17-3.073 7.998a75.137 75.137 0 0 1-3.613 1.563l.203 1.071c.216-.069.442-.117.681-.117a2.236 2.236 0 0 1 2.234 2.234 2.23 2.23 0 0 1-2.092 2.22l.191 1.002a.502.502 0 0 1-.983.187l-.26-1.373a2.224 2.224 0 0 1-1.151-2.894H3.554l-.559 4.24a.505.505 0 0 1-.56.43.501.501 0 0 1-.432-.562l2.637-19.99a.503.503 0 0 1 .585-.427C6.294 2.2 8.268 3.243 8.521 5.82l11.023-.056c-.003-.029-.016-.054-.016-.084a.75.75 0 0 1 1.5 0zm-4.22 7.835c3.25-1.49 2.777-5.492 2.54-6.75L8.05 6.82c-.298.027-.5-.22-.503-.495-.02-2.048-1.265-2.868-1.992-3.172L3.688 17.316h9.155l-.295-1.553a.499.499 0 0 1 .32-.562c.012-.006 1.37-.508 3.938-1.686zm-6.863-4.96a.75.75 0 1 1 0 1.5.75.75 0 0 1 0-1.5zm5.783 10.62c0-.68-.554-1.235-1.234-1.235-.68 0-1.235.554-1.235 1.234 0 .681.554 1.235 1.235 1.235.68 0 1.234-.554 1.234-1.235z"/></g></svg>