<svg xmlns="http://www.w3.org/2000/svg" width="24" height="24" viewBox="0 0 24 24"><g fill="none" fill-rule="evenodd"><path d="M0 0h24v24H0z"/><path fill="#29242d" d="M20.499 19H4.498A.5.5 0 0 1 4 18.5v-.799h16.959c.007 0 .013-.004.019-.004.013.255.022.519.022.803 0 .275-.225.5-.501.5zM4 6.305h7.029V5H4v1.305zm9.752 5.504l-.983.984a.499.499 0 0 0 .353.853.498.498 0 0 0 .354-.146l1.264-1.266c.573.178 1.172.287 1.758.388 2.093.361 3.936.687 4.392 4.079H4V7.305h7.035c.027.468.138 1.193.443 1.955l-1.22 1.221a.499.499 0 0 0 .353.854.5.5 0 0 0 .354-.147l.994-.993c.398.607.982 1.175 1.793 1.614zm2.917-.173c-.813-.14-1.58-.273-2.237-.583-2.555-1.204-2.411-4.095-2.403-4.217 0-.005-.003-.01-.003-.016.001-.005.003-.009.003-.015V4.5c0-.276-.222-.5-.5-.5H3.5a.5.5 0 0 0-.5.5v14A1.5 1.5 0 0 0 4.498 20h16.001c.827 0 1.501-.673 1.501-1.5 0-5.941-2.832-6.432-5.331-6.864z"/></g></svg>