<svg xmlns="http://www.w3.org/2000/svg" width="24" height="24" viewBox="0 0 24 24"><g fill="none" fill-rule="evenodd"><path d="M0 0h24v24H0z"/><path fill="#29242d" d="M19.146 14.262a.5.5 0 0 0-.146.354V20.5c0 .828-.673 1.5-1.5 1.5h-10A1.5 1.5 0 0 1 6 20.5v-5.884a.5.5 0 0 0-.147-.354l-2.646-2.648 2.58-2.581c.826-.763 1.816-1.189 2.616-1.425a4.39 4.39 0 0 0 8.193 0c.8.234 1.788.66 2.603 1.412l2.593 2.594-2.646 2.648zm-3.542-6.879A3.388 3.388 0 0 1 12.5 9.422a3.388 3.388 0 0 1-3.105-2.039c1.76-.31 4.45-.31 6.21 0zm7.25 3.877l-2.962-2.961c-1.144-1.058-2.532-1.551-3.5-1.779l-.006-.002c-.882-.219-2.042-.344-3.302-.375.166-.344.551-.709.813-.908a1.92 1.92 0 1 0-3.317-1.317.499.499 0 1 0 1 0 .92.92 0 0 1 1.84 0 .965.965 0 0 1-.18.569c-.115.084-1.02.769-1.2 1.652-1.309.025-2.516.154-3.427.379l-.005.002c-.969.228-2.357.721-3.515 1.793L2.146 11.26a.5.5 0 0 0 0 .707L5 14.823V20.5C5 21.879 6.121 23 7.5 23h10c1.378 0 2.5-1.121 2.5-2.5v-5.677l2.853-2.856a.5.5 0 0 0 0-.707z"/></g></svg>